<svg width="478" height="216" viewBox="0 0 478 216" fill="none" xmlns="http://www.w3.org/2000/svg">
<path d="M167.41 29.1985H180.21V73.2305H167.41V29.1985ZM182.898 63.4385H183.41C185.501 63.4385 186.973 63.3531 187.826 63.1825C188.722 62.9691 189.383 62.4998 189.81 61.7745C190.279 61.0065 190.535 59.7905 190.578 58.1265C190.663 55.9931 190.706 53.6891 190.706 51.2145C190.706 48.7825 190.663 46.4571 190.578 44.2385C190.493 42.5745 190.215 41.3585 189.746 40.5905C189.319 39.8225 188.615 39.3531 187.634 39.1825C186.653 39.0545 185.245 38.9905 183.41 38.9905H182.898V29.1985H183.41C186.823 29.1985 189.661 29.3478 191.922 29.6465C194.226 29.9451 196.125 30.4145 197.618 31.0545C199.069 31.6945 200.221 32.5691 201.074 33.6785C201.927 34.7878 202.546 36.1745 202.93 37.8385C203.271 39.3318 203.485 41.1025 203.57 43.1505C203.698 45.1558 203.762 47.8438 203.762 51.2145C203.762 54.6278 203.698 57.3371 203.57 59.3425C203.485 61.3478 203.271 63.0971 202.93 64.5905C202.546 66.2545 201.927 67.6411 201.074 68.7505C200.221 69.8598 199.069 70.7345 197.618 71.3745C196.125 72.0145 194.226 72.4838 191.922 72.7825C189.661 73.0811 186.823 73.2305 183.41 73.2305H182.898V63.4385ZM210.398 25.6785H222.238V34.8945H210.398V25.6785ZM210.398 40.5905H222.238V73.2305H210.398V40.5905ZM250.707 49.3585C249.64 49.1878 248.104 49.1025 246.099 49.1025C244.776 49.1025 243.838 49.1878 243.283 49.3585V40.0785C246.312 40.1211 249.448 40.5051 252.691 41.2305V49.5505L250.707 49.3585ZM242.835 73.7425C239.507 73.7425 236.862 73.3371 234.899 72.5265C232.936 71.7158 231.486 70.5211 230.547 68.9425C229.694 67.5771 229.139 65.9771 228.883 64.1425C228.67 62.3078 228.563 59.9185 228.563 56.9745C228.563 54.2865 228.67 52.0465 228.883 50.2545C229.096 48.4625 229.544 46.8838 230.227 45.5185C231.038 43.9398 232.254 42.7238 233.875 41.8705C235.539 40.9745 237.779 40.4198 240.595 40.2065V56.9105C240.595 58.7878 240.638 60.1958 240.723 61.1345C240.851 62.0731 241.086 62.7985 241.427 63.3105C241.811 63.8225 242.344 64.1851 243.027 64.3985C243.752 64.6118 244.776 64.7185 246.099 64.7185C248.36 64.7185 249.918 64.6545 250.771 64.5265L252.947 64.2705V72.5905C249.79 73.3585 246.419 73.7425 242.835 73.7425ZM256.777 40.5905H262.793V31.1185H274.633V40.5905H281.801V49.6145H256.777V40.5905ZM262.793 52.1745H274.633V73.2305H262.793V52.1745ZM286.586 25.6785H298.426V34.8945H286.586V25.6785ZM286.586 40.5905H298.426V73.2305H286.586V40.5905ZM323.951 56.9745C323.951 54.7985 323.929 53.3478 323.887 52.6225C323.844 51.5985 323.716 50.8305 323.503 50.3185C323.289 49.7638 322.948 49.4225 322.479 49.2945C321.967 49.1665 321.263 49.1025 320.367 49.1025H319.471V40.0785H320.367C324.079 40.0785 326.98 40.3771 329.071 40.9745C331.161 41.5291 332.719 42.4678 333.743 43.7905C334.681 44.9851 335.279 46.5851 335.535 48.5905C335.833 50.5531 335.983 53.3478 335.983 56.9745C335.983 60.3451 335.876 62.9691 335.663 64.8465C335.492 66.6811 335.044 68.1958 334.319 69.3905C333.508 70.7131 332.292 71.7158 330.671 72.3985C329.049 73.0385 326.809 73.4438 323.951 73.6145V56.9745ZM320.367 73.7425C316.655 73.7425 313.753 73.4651 311.663 72.9105C309.572 72.3558 308.015 71.4171 306.991 70.0945C306.052 68.8998 305.433 67.3211 305.135 65.3585C304.879 63.3958 304.751 60.6011 304.751 56.9745C304.751 53.6465 304.857 51.0438 305.071 49.1665C305.284 47.2891 305.753 45.7318 306.479 44.4945C307.247 43.1291 308.441 42.1265 310.062 41.4865C311.684 40.8038 313.924 40.3771 316.783 40.2065V56.9745C316.783 59.1505 316.804 60.5798 316.847 61.2625C316.889 62.2865 317.017 63.0545 317.231 63.5665C317.444 64.0785 317.807 64.3985 318.319 64.5265C318.745 64.6545 319.428 64.7185 320.367 64.7185H321.263V73.7425H320.367ZM360.832 57.8065C360.832 55.5451 360.81 54.0518 360.768 53.3265C360.682 52.1318 360.576 51.3425 360.448 50.9585C360.277 50.5318 359.978 50.2758 359.552 50.1905C359.125 50.0625 358.442 49.9985 357.503 49.9985H356.864V41.9985C358.528 40.7611 360.704 40.1425 363.392 40.1425C367.232 40.1425 369.813 41.3158 371.136 43.6625C371.733 44.6865 372.138 45.9451 372.352 47.4385C372.565 48.8891 372.672 50.6811 372.672 52.8145V73.2305H360.832V57.8065ZM342.336 40.5905H354.176V73.2305H342.336V40.5905ZM396.665 53.0065C396.665 51.8971 396.622 51.1078 396.537 50.6385C396.451 50.1691 396.195 49.8278 395.769 49.6145C395.385 49.4011 394.659 49.2518 393.593 49.1665C392.953 49.1238 391.566 49.1025 389.433 49.1025C387.385 49.1025 385.486 49.1878 383.737 49.3585L380.345 49.5505V41.2305C384.355 40.4625 388.686 40.0785 393.337 40.0785C396.921 40.0785 399.715 40.3345 401.721 40.8465C403.769 41.3585 405.305 42.1691 406.329 43.2785C407.225 44.3025 407.801 45.6038 408.057 47.1825C408.355 48.7611 408.505 50.9585 408.505 53.7745V73.2305H396.665V53.0065ZM387.193 73.6785C384.249 73.6785 382.073 72.8678 380.665 71.2465C379.257 69.5825 378.553 67.0865 378.553 63.7585C378.553 61.7105 378.702 60.0678 379.001 58.8305C379.299 57.5505 379.811 56.5478 380.536 55.8225C381.262 55.0545 382.265 54.5211 383.545 54.2225C384.825 53.8811 386.51 53.7105 388.601 53.7105L393.977 53.8385V59.5345H393.337C392.355 59.5345 391.715 59.5558 391.417 59.5985C390.563 59.6411 390.115 60.0465 390.073 60.8145C390.03 61.0705 390.009 61.6038 390.009 62.4145C390.009 63.0545 390.03 63.5451 390.073 63.8865C390.158 64.2278 390.286 64.5051 390.457 64.7185C390.67 65.0171 390.99 65.1878 391.417 65.2305C392.014 65.3158 392.654 65.3585 393.337 65.3585H393.977V71.8865C393.038 72.6118 392.035 73.0811 390.969 73.2945C389.945 73.5505 388.686 73.6785 387.193 73.6785ZM430.176 42.4465C431.072 41.5931 432.117 40.9958 433.312 40.6545C434.549 40.2705 436.064 40.0785 437.856 40.0785V50.7665C435.936 50.7665 434.357 50.8945 433.12 51.1505C431.925 51.4065 430.944 51.8545 430.176 52.4945V42.4465ZM415.648 40.5905H427.488V73.2305H415.648V40.5905ZM452.116 73.0385C448.276 73.0385 445.694 71.8651 444.372 69.5185C443.774 68.4945 443.369 67.2571 443.156 65.8065C442.942 64.3131 442.836 62.4998 442.836 60.3665V40.5905H454.676V55.3745C454.676 57.6358 454.697 59.1291 454.74 59.8545C454.825 60.9638 454.953 61.7318 455.124 62.1585C455.294 62.6278 455.572 62.9265 455.956 63.0545C456.34 63.1398 457.022 63.1825 458.003 63.1825H458.644V71.1185C456.937 72.3985 454.761 73.0385 452.116 73.0385ZM456.532 86.4145C454.313 86.4145 451.71 86.2865 448.724 86.0305L445.012 85.6465V77.3905H453.588C455.124 77.3905 456.617 77.3478 458.068 77.2625C459.092 77.1771 459.838 76.9638 460.308 76.6225C460.82 76.3238 461.118 75.7905 461.204 75.0225C461.289 73.9985 461.332 72.9105 461.332 71.7585V40.5905H473.172V69.6465C473.172 73.0598 473.022 75.7051 472.724 77.5825C472.468 79.4598 471.849 81.0171 470.868 82.2545C469.758 83.6625 468.073 84.7078 465.812 85.3905C463.55 86.0731 460.457 86.4145 456.532 86.4145Z" fill="#1540AD"/>
<path fill-rule="evenodd" clip-rule="evenodd" d="M309.636 94.2971C295.475 96.4008 285.718 109.67 287.836 123.929C289.956 138.201 303.148 148.057 317.31 145.953C331.462 143.851 341.219 130.581 339.1 116.314C336.981 102.055 323.789 92.1947 309.636 94.2971V94.2971ZM317.002 141.954C314.126 142.378 311.195 142.23 308.377 141.52C305.558 140.809 302.907 139.549 300.574 137.812C298.242 136.076 296.274 133.896 294.783 131.397C293.292 128.899 292.308 126.132 291.886 123.253C291.454 120.376 291.592 117.443 292.293 114.621C292.994 111.798 294.244 109.142 295.971 106.804C297.698 104.466 299.869 102.491 302.359 100.993C304.849 99.4956 307.61 98.5037 310.483 98.0745C313.357 97.6505 316.287 97.7975 319.104 98.5072C321.921 99.2168 324.572 100.475 326.904 102.21C329.235 103.946 331.203 106.124 332.694 108.62C334.185 111.117 335.17 113.883 335.592 116.76C337.394 128.885 329.071 140.162 317.002 141.954V141.954Z" fill="#262626"/>
<path fill-rule="evenodd" clip-rule="evenodd" d="M361.811 149.006L355.132 158.025L335.161 143.207C335.161 143.207 338.393 142.304 340.159 139.909C341.934 137.522 341.844 134.187 341.844 134.187L361.811 149.006V149.006Z" fill="#262626"/>
<path fill-rule="evenodd" clip-rule="evenodd" d="M307.509 106.071C309.972 105.705 308.76 103.947 305.337 104.455C299.438 105.331 295.369 110.822 296.246 116.727C296.757 120.162 298.785 120.808 298.418 118.338C298.21 116.935 298.28 115.505 298.624 114.129C298.969 112.753 299.58 111.458 300.425 110.319C301.269 109.18 302.329 108.218 303.545 107.49C304.76 106.761 306.107 106.279 307.509 106.071V106.071Z" fill="#262626"/>
<path d="M245.044 186.93C234.427 182.65 222.182 180.495 208.656 180.495C175.456 180.495 143.875 193.217 134.371 197.407V136.638L138.8 141.505V50.2272C155.564 36.1348 175.883 28.5672 199.38 27.6535L203.939 19.9767C176.34 20.0065 152.505 28.448 133.129 45.0729C113.714 28.4083 89.849 19.9668 62.141 19.9668C36.2702 19.9668 16.8746 27.5046 16.0702 27.8224L13.6867 28.7559V44.04C5.84106 45.49 0.964844 48.1118 0.964844 52.3921C0.964844 74.6778 0.964844 209.891 0.964844 209.891H116.961C120.983 213.476 126.843 215.77 133.407 215.77C139.972 215.77 145.841 213.486 149.843 209.891H262.94C262.94 209.891 262.94 61.7374 262.94 52.5511L245.044 89.5845V186.93V186.93ZM131.868 197.487C122.235 193.534 89.0645 180.902 55.8546 180.902C42.7355 180.902 31.106 182.938 21.1947 186.9V33.9598C26.9746 32.0332 42.7355 27.4847 62.1311 27.4847C87.6344 27.4847 109.553 35.1913 127.458 50.2371V141.525L131.868 136.658V197.487Z" fill="black"/>
<path d="M245.044 186.93C234.427 182.65 222.182 180.495 208.656 180.495C175.456 180.495 143.875 193.217 134.371 197.407V136.638L138.8 141.505V50.2272C155.564 36.1348 175.883 28.5672 199.38 27.6535L203.939 19.9767C176.34 20.0065 152.505 28.448 133.129 45.0729C113.714 28.4083 89.849 19.9668 62.141 19.9668C36.2702 19.9668 16.8746 27.5046 16.0702 27.8224L13.6867 28.7559V44.04C5.84106 45.49 0.964844 48.1118 0.964844 52.3921C0.964844 74.6778 0.964844 209.891 0.964844 209.891H116.961C120.983 213.476 126.843 215.77 133.407 215.77C139.972 215.77 145.841 213.486 149.843 209.891H262.94C262.94 209.891 262.94 61.7374 262.94 52.5511L245.044 89.5845V186.93V186.93ZM131.868 197.487C122.235 193.534 89.0645 180.902 55.8546 180.902C42.7355 180.902 31.106 182.938 21.1947 186.9V33.9598C26.9746 32.0332 42.7355 27.4847 62.1311 27.4847C87.6344 27.4847 109.553 35.1913 127.458 50.2371V141.525L131.868 136.658V197.487Z" fill="#A0261A"/>
<path d="M36.0625 54.0622L37.6217 59.9514C76.7903 49.5634 112.046 68.7803 112.394 68.9789L115.353 63.6558C113.844 62.8315 77.6643 43.0386 36.0625 54.0622Z" fill="black"/>
<path d="M36.0625 54.0622L37.6217 59.9514C76.7903 49.5634 112.046 68.7803 112.394 68.9789L115.353 63.6558C113.844 62.8315 77.6643 43.0386 36.0625 54.0622Z" fill="black"/>
<path d="M36.0625 71.3028L37.6217 77.182C76.7903 66.7841 112.046 86.0307 112.394 86.2095L115.353 80.8963C113.844 80.0521 77.6643 60.2692 36.0625 71.3028Z" fill="black"/>
<path d="M36.0625 71.3028L37.6217 77.182C76.7903 66.7841 112.046 86.0307 112.394 86.2095L115.353 80.8963C113.844 80.0521 77.6643 60.2692 36.0625 71.3028Z" fill="black"/>
<path d="M36.0625 87.4841L37.6217 93.3733C76.7903 82.9952 112.046 102.222 112.394 102.411L115.353 97.0975C113.844 96.2335 77.6643 76.4605 36.0625 87.4841Z" fill="black"/>
<path d="M36.0625 87.4841L37.6217 93.3733C76.7903 82.9952 112.046 102.222 112.394 102.411L115.353 97.0975C113.844 96.2335 77.6643 76.4605 36.0625 87.4841Z" fill="black"/>
<path d="M36.0625 105.245L37.6217 111.124C76.7903 100.736 112.046 119.973 112.394 120.152L115.353 114.839C113.844 114.004 77.6643 94.2115 36.0625 105.245Z" fill="black"/>
<path d="M36.0625 105.245L37.6217 111.124C76.7903 100.736 112.046 119.973 112.394 120.152L115.353 114.839C113.844 114.004 77.6643 94.2115 36.0625 105.245Z" fill="black"/>
<path d="M36.0625 121.701L37.6217 127.581C76.7903 117.202 112.046 136.419 112.394 136.598L115.353 131.285C113.844 130.451 77.6643 110.678 36.0625 121.701Z" fill="black"/>
<path d="M36.0625 121.701L37.6217 127.581C76.7903 117.202 112.046 136.419 112.394 136.598L115.353 131.285C113.844 130.451 77.6643 110.678 36.0625 121.701Z" fill="black"/>
<path d="M36.0625 138.596L37.6217 144.475C76.7903 134.077 112.046 153.314 112.394 153.512L115.353 148.179C113.844 147.345 77.6643 127.572 36.0625 138.596Z" fill="black"/>
<path d="M36.0625 138.596L37.6217 144.475C76.7903 134.077 112.046 153.314 112.394 153.512L115.353 148.179C113.844 147.345 77.6643 127.572 36.0625 138.596Z" fill="black"/>
<path d="M36.0625 155.518L37.6217 161.407C76.7903 151.009 112.046 170.236 112.394 170.425L115.353 165.132C113.844 164.277 77.6643 144.495 36.0625 155.518Z" fill="black"/>
<path d="M36.0625 155.518L37.6217 161.407C76.7903 151.009 112.046 170.236 112.394 170.425L115.353 165.132C113.844 164.277 77.6643 144.495 36.0625 155.518Z" fill="black"/>
</svg>
