<svg width="372" height="309" viewBox="0 0 372 309" fill="none" xmlns="http://www.w3.org/2000/svg">
<path fill-rule="evenodd" clip-rule="evenodd" d="M256.456 264.478C273.146 264.478 288.256 267.138 301.356 272.419V152.303L323.438 106.606V300.751H183.886C178.947 305.187 171.705 308.006 163.605 308.006C155.505 308.006 148.275 305.175 143.312 300.751H0.181641V106.41C0.181641 101.129 6.1985 97.8935 15.8794 96.1043V77.245L18.8204 76.093C19.813 75.7009 43.7457 66.3999 75.6681 66.3999C109.858 66.3999 139.305 76.8161 163.262 97.3788C187.17 76.8651 216.58 66.4489 250.635 66.4121L245.01 75.8847C216.017 77.0121 190.944 86.3499 170.259 103.739V216.368L164.794 210.363V285.348C176.521 280.176 215.49 264.478 256.456 264.478ZM67.9112 264.981C108.89 264.981 149.819 280.568 161.706 285.446V210.388L156.265 216.393V103.751C134.17 85.1857 107.125 75.6764 75.6559 75.6764C51.7232 75.6764 32.2757 81.2889 25.1437 83.6662V272.382C37.3734 267.493 51.7232 264.981 67.9112 264.981Z" fill="#1540AD"/>
<g clip-path="url(#clip0_1625:7)">
<path fill-rule="evenodd" clip-rule="evenodd" d="M240.425 87.7859C242.783 112.354 264.758 130.334 289.495 127.959C314.255 125.582 332.399 103.75 330.041 79.1819C327.683 54.6288 305.709 36.6483 280.956 39.0247C256.219 41.3997 238.067 63.2329 240.425 87.7859V87.7859ZM323.129 79.3554C323.602 84.3437 323.086 89.3763 321.611 94.1657C320.136 98.9552 317.731 103.408 314.533 107.268C311.335 111.129 307.406 114.323 302.972 116.666C298.538 119.01 293.686 120.458 288.692 120.928C283.701 121.415 278.664 120.915 273.867 119.456C269.071 117.997 264.609 115.609 260.738 112.427C256.866 109.245 253.661 105.332 251.304 100.911C248.947 96.4909 247.486 91.6496 247.003 86.6643C246.53 81.6788 247.044 76.6486 248.517 71.8613C249.99 67.074 252.393 62.6234 255.588 58.7637C258.784 54.904 262.709 51.7109 267.14 49.3668C271.571 47.0227 276.42 45.5737 281.412 45.1024C302.447 43.0827 321.119 58.4178 323.129 79.3554V79.3554Z" fill="#F5DD00"/>
<path fill-rule="evenodd" clip-rule="evenodd" d="M339.266 2.83817L354.198 15.1399L326.905 48.2011C326.905 48.2011 325.639 42.5557 321.674 39.3028C317.722 36.0335 311.973 35.8919 311.973 35.8919L339.266 2.83817V2.83817Z" fill="#F5DD00"/>
<path fill-rule="evenodd" clip-rule="evenodd" d="M260.506 92.497C260.096 88.2243 256.961 90.1537 257.531 96.0921C258.513 106.326 267.602 113.821 277.847 112.837C283.807 112.265 285.1 108.831 280.815 109.243C278.381 109.476 275.924 109.227 273.586 108.511C271.248 107.796 269.074 106.627 267.188 105.072C265.302 103.517 263.741 101.606 262.595 99.4487C261.449 97.291 260.739 94.9288 260.506 92.497V92.497Z" fill="#F5DD00"/>
</g>
<defs>
<clipPath id="clip0_1625:7">
<rect width="127.71" height="120.065" fill="white" transform="translate(371.818 120.056) rotate(174.516)"/>
</clipPath>
</defs>
</svg>
