<svg width="672" height="556" viewBox="0 0 672 556" fill="none" xmlns="http://www.w3.org/2000/svg">
<path fill-rule="evenodd" clip-rule="evenodd" d="M462.942 476.678C493.066 476.678 520.338 481.478 543.982 491.011V274.21L583.839 191.731V542.148H331.959C323.045 550.155 309.973 555.242 295.353 555.242C280.733 555.242 267.683 550.132 258.726 542.148H0.386719V191.378C0.386719 181.845 11.2467 176.006 28.7199 172.776V138.737L34.0283 136.657C35.8198 135.95 79.0164 119.162 136.634 119.162C198.343 119.162 251.493 137.962 294.734 175.077C337.886 138.051 390.969 119.251 452.436 119.184L442.283 136.281C389.952 138.316 344.699 155.17 307.363 186.556V389.843L297.499 379.005V514.345C318.666 505.012 389.001 476.678 462.942 476.678ZM122.633 477.585C196.596 477.585 270.47 505.719 291.925 514.522V379.049L282.104 389.887V186.578C242.226 153.069 193.411 135.905 136.612 135.905C93.4153 135.905 58.3139 146.036 45.4412 150.326V490.945C67.515 482.119 93.4153 477.585 122.633 477.585Z" fill="#24ABFF"/>
<g clip-path="url(#clip0_1620:120)">
<path fill-rule="evenodd" clip-rule="evenodd" d="M434.008 157.761C438.265 202.105 477.928 234.558 522.576 230.271C567.265 225.981 600.015 186.575 595.758 142.232C591.503 97.9154 551.84 65.4619 507.165 69.7512C462.516 74.0379 429.753 113.445 434.008 157.761V157.761ZM583.283 142.545C584.137 151.548 583.206 160.632 580.544 169.276C577.882 177.921 573.54 185.957 567.768 192.925C561.995 199.894 554.905 205.658 546.902 209.888C538.899 214.119 530.14 216.732 521.126 217.58C512.119 218.459 503.027 217.556 494.37 214.924C485.712 212.291 477.66 207.98 470.672 202.236C463.684 196.493 457.898 189.43 453.644 181.452C449.391 173.473 446.753 164.735 445.882 155.737C445.027 146.738 445.956 137.659 448.614 129.019C451.273 120.378 455.61 112.345 461.377 105.378C467.145 98.412 474.23 92.6487 482.227 88.4178C490.224 84.187 498.978 81.5715 507.986 80.7208C545.954 77.0756 579.655 104.754 583.283 142.545V142.545Z" fill="#FF5391"/>
<path fill-rule="evenodd" clip-rule="evenodd" d="M612.409 4.43729L639.359 26.641L590.098 86.3139C590.098 86.3139 587.812 76.1244 580.655 70.2531C573.523 64.3523 563.146 64.0967 563.146 64.0967L612.409 4.43729V4.43729Z" fill="#FF5391"/>
<path fill-rule="evenodd" clip-rule="evenodd" d="M470.252 166.265C469.511 158.553 463.852 162.036 464.881 172.754C466.654 191.225 483.06 204.753 501.551 202.978C512.308 201.945 514.642 195.748 506.908 196.49C502.514 196.91 498.08 196.462 493.86 195.17C489.639 193.879 485.715 191.769 482.311 188.963C478.908 186.156 476.091 182.707 474.021 178.813C471.952 174.918 470.671 170.655 470.252 166.265V166.265Z" fill="#FF5391"/>
</g>
<defs>
<clipPath id="clip0_1620:120">
<rect width="230.507" height="216.709" fill="white" transform="translate(671.162 216.006) rotate(174.516)"/>
</clipPath>
</defs>
</svg>
